<svg xmlns="http://www.w3.org/2000/svg" xmlns:xlink="http://www.w3.org/1999/xlink" width="500" zoomAndPan="magnify" viewBox="0 0 375 374.999991" height="500" preserveAspectRatio="xMidYMid meet" version="1.0"><defs><clipPath id="f6a8afbb7e"><path d="M 37.5 245.355469 L 337.679688 245.355469 L 337.679688 309.234375 L 37.5 309.234375 Z M 37.5 245.355469 " clip-rule="nonzero"/></clipPath><clipPath id="279df4bcd5"><path d="M 54.75 245.355469 L 320.25 245.355469 C 329.777344 245.355469 337.5 253.078125 337.5 262.605469 L 337.5 291.984375 C 337.5 301.511719 329.777344 309.234375 320.25 309.234375 L 54.75 309.234375 C 45.222656 309.234375 37.5 301.511719 37.5 291.984375 L 37.5 262.605469 C 37.5 253.078125 45.222656 245.355469 54.75 245.355469 Z M 54.75 245.355469 " clip-rule="nonzero"/></clipPath><clipPath id="890e26757b"><path d="M 37.5 155.558594 L 337.679688 155.558594 L 337.679688 219.441406 L 37.5 219.441406 Z M 37.5 155.558594 " clip-rule="nonzero"/></clipPath><clipPath id="4c3d6732ea"><path d="M 54.75 155.558594 L 320.25 155.558594 C 329.777344 155.558594 337.5 163.285156 337.5 172.808594 L 337.5 202.191406 C 337.5 211.714844 329.777344 219.441406 320.25 219.441406 L 54.75 219.441406 C 45.222656 219.441406 37.5 211.714844 37.5 202.191406 L 37.5 172.808594 C 37.5 163.285156 45.222656 155.558594 54.75 155.558594 Z M 54.75 155.558594 " clip-rule="nonzero"/></clipPath><clipPath id="d6a9c4895f"><path d="M 37.5 65.765625 L 337.679688 65.765625 L 337.679688 129.644531 L 37.5 129.644531 Z M 37.5 65.765625 " clip-rule="nonzero"/></clipPath><clipPath id="ed1567b5df"><path d="M 54.75 65.765625 L 320.25 65.765625 C 329.777344 65.765625 337.5 73.488281 337.5 83.015625 L 337.5 112.394531 C 337.5 121.921875 329.777344 129.644531 320.25 129.644531 L 54.75 129.644531 C 45.222656 129.644531 37.5 121.921875 37.5 112.394531 L 37.5 83.015625 C 37.5 73.488281 45.222656 65.765625 54.75 65.765625 Z M 54.75 65.765625 " clip-rule="nonzero"/></clipPath></defs><g clip-path="url(#f6a8afbb7e)"><g clip-path="url(#279df4bcd5)"><path fill="#1e2a6b" d="M 37.5 245.355469 L 337.429688 245.355469 L 337.429688 309.234375 L 37.5 309.234375 Z M 37.5 245.355469 " fill-opacity="1" fill-rule="nonzero"/></g></g><g clip-path="url(#890e26757b)"><g clip-path="url(#4c3d6732ea)"><path fill="#1e2a6b" d="M 37.5 155.558594 L 337.429688 155.558594 L 337.429688 219.441406 L 37.5 219.441406 Z M 37.5 155.558594 " fill-opacity="1" fill-rule="nonzero"/></g></g><g clip-path="url(#d6a9c4895f)"><g clip-path="url(#ed1567b5df)"><path fill="#1e2a6b" d="M 37.5 65.765625 L 337.429688 65.765625 L 337.429688 129.644531 L 37.5 129.644531 Z M 37.5 65.765625 " fill-opacity="1" fill-rule="nonzero"/></g></g></svg>