<svg xmlns="http://www.w3.org/2000/svg" xmlns:xlink="http://www.w3.org/1999/xlink" width="500" zoomAndPan="magnify" viewBox="0 0 375 374.999991" height="500" preserveAspectRatio="xMidYMid meet" version="1.0"><defs><clipPath id="514ecc406c"><path d="M 37.5 245.355469 L 128.328125 245.355469 L 128.328125 309.234375 L 37.5 309.234375 Z M 37.5 245.355469 " clip-rule="nonzero"/></clipPath><clipPath id="05667b5407"><path d="M 54.75 245.355469 L 110.886719 245.355469 C 120.414062 245.355469 128.136719 253.078125 128.136719 262.605469 L 128.136719 291.984375 C 128.136719 301.511719 120.414062 309.234375 110.886719 309.234375 L 54.75 309.234375 C 45.222656 309.234375 37.5 301.511719 37.5 291.984375 L 37.5 262.605469 C 37.5 253.078125 45.222656 245.355469 54.75 245.355469 Z M 54.75 245.355469 " clip-rule="nonzero"/></clipPath><clipPath id="4922867371"><path d="M 37.5 155.558594 L 218.90625 155.558594 L 218.90625 219.441406 L 37.5 219.441406 Z M 37.5 155.558594 " clip-rule="nonzero"/></clipPath><clipPath id="bf2da53025"><path d="M 54.75 155.558594 L 201.527344 155.558594 C 211.054688 155.558594 218.777344 163.285156 218.777344 172.808594 L 218.777344 202.191406 C 218.777344 211.714844 211.054688 219.441406 201.527344 219.441406 L 54.75 219.441406 C 45.222656 219.441406 37.5 211.714844 37.5 202.191406 L 37.5 172.808594 C 37.5 163.285156 45.222656 155.558594 54.75 155.558594 Z M 54.75 155.558594 " clip-rule="nonzero"/></clipPath><clipPath id="e2767db0c3"><path d="M 37.5 65.765625 L 337.679688 65.765625 L 337.679688 129.644531 L 37.5 129.644531 Z M 37.5 65.765625 " clip-rule="nonzero"/></clipPath><clipPath id="cefc28f220"><path d="M 54.75 65.765625 L 320.25 65.765625 C 329.777344 65.765625 337.5 73.488281 337.5 83.015625 L 337.5 112.394531 C 337.5 121.921875 329.777344 129.644531 320.25 129.644531 L 54.75 129.644531 C 45.222656 129.644531 37.5 121.921875 37.5 112.394531 L 37.5 83.015625 C 37.5 73.488281 45.222656 65.765625 54.75 65.765625 Z M 54.75 65.765625 " clip-rule="nonzero"/></clipPath></defs><g clip-path="url(#514ecc406c)"><g clip-path="url(#05667b5407)"><path fill="#1e2a6b" d="M 37.5 245.355469 L 128.078125 245.355469 L 128.078125 309.234375 L 37.5 309.234375 Z M 37.5 245.355469 " fill-opacity="1" fill-rule="nonzero"/></g></g><g clip-path="url(#4922867371)"><g clip-path="url(#bf2da53025)"><path fill="#1e2a6b" d="M 37.5 155.558594 L 218.65625 155.558594 L 218.65625 219.441406 L 37.5 219.441406 Z M 37.5 155.558594 " fill-opacity="1" fill-rule="nonzero"/></g></g><g clip-path="url(#e2767db0c3)"><g clip-path="url(#cefc28f220)"><path fill="#1e2a6b" d="M 37.5 65.765625 L 337.429688 65.765625 L 337.429688 129.644531 L 37.5 129.644531 Z M 37.5 65.765625 " fill-opacity="1" fill-rule="nonzero"/></g></g></svg>